<svg width="300" height="408" viewBox="0 0 300 408" fill="none" xmlns="http://www.w3.org/2000/svg">
<path d="M105 80.1322C105 80.1322 117 79.1322 124.5 82.6322C132 86.1322 139 91.6322 139 91.6322" stroke="white" stroke-width="6" stroke-linecap="round"/>
<path d="M105 94.1021C105 94.1021 130 92.6021 131 101.102C132 109.602 111.5 123.102 111.5 123.102M118 94.5C118 94.5 114.5 99.5 116.5 106C118.5 112.5 122.5 114 122.5 114" stroke="white" stroke-width="6" stroke-linecap="round"/>
<path d="M186 128.111C186 128.111 267.5 127.785 267.5 128.111C267.5 128.386 267.5 149.626 267.5 158.007C267.5 160.072 266.918 162.052 264.979 162.762C260.588 164.37 251.513 166.07 246 170.111C243.326 172.07 240.733 174.866 238.398 177.85C231.364 186.838 221.276 193.611 209.862 193.611H188" stroke="white" stroke-width="6"/>
<path d="M142 315H91.564C83.576 315 76.9863 308.765 77.0004 300.777C77.008 296.538 79.2285 292.632 82.7306 290.244L99.2217 279L124.307 262.536C125.863 261.514 127.518 260.656 129.049 259.597C136.726 254.288 150.5 240.5 150.5 240.5M150.5 240.5C150.5 240.5 128.5 223 122.5 220.5C116.5 218 97 220.5 90.5 220.5C84 220.5 81 214 81 211C81 208 84.5 201 83.5 197C82.5 193 78 192.5 77.5 188.5C77 184.5 80 184 80 182C80 180 77.5 178 77.5 175C77.5 172 82 167.5 80 162.5C78 157.5 69 157 69 147.5C69 138 92 102.5 92 98C92 93.5 94 80 92 73C90 66 90 47 100 35C110 23 119.5 19 129.5 15C139.5 11 166 6 166 6M150.5 240.5C150.5 240.5 177.5 215.5 187.5 194C197.5 172.5 190 135 187.5 128C185 121 175 116 184.5 89.5C189.716 74.9502 199.906 63.8672 208.036 56.8301C215.131 50.6881 225.209 50.0336 232.832 55.5082C238.63 59.6724 245.324 65.6241 250.5 73.5C262 91 260 127 260 127M260 162.5V164.5C260 171 268 173.5 272.5 179.5C277 185.5 279 189 278.5 192C278 195 277.5 198 272.5 199C267.5 200 263.5 199.5 262.5 201.5C261.5 203.5 263.5 206.5 266.5 212.5C269.5 218.5 264.5 219 261.5 221C258.5 223 266.5 226 266.5 228.5C266.5 231 261.5 234.5 261.5 239C261.5 243.5 264 246.5 264 251C264 255.5 264 265.5 252 265.5C240 265.5 240 263 228 263C219.075 263 210.76 268.689 205.904 272.814C203.503 274.854 204.027 278.493 206.74 280.095L235.415 297.036L260.5 313.5L282.42 328.446C282.471 328.48 282.5 328.503 282.508 328.563C282.544 328.842 282.5 329.184 282.5 329.464V390C282.5 392.761 280.261 395 277.5 395H202" stroke="white" stroke-width="6"/>
<mask id="path-5-inside-1_70_23" fill="white">
<rect x="153" y="312" width="33" height="86" rx="1"/>
</mask>
<rect x="153" y="312" width="33" height="86" rx="1" fill="white" stroke="white" stroke-width="12" mask="url(#path-5-inside-1_70_23)"/>
<rect x="190.792" y="312" width="15.2083" height="6" rx="1" fill="white"/>
<rect x="133" y="312" width="15.2083" height="6" rx="1" fill="white"/>
<rect x="190.792" y="328" width="15.2083" height="6" rx="1" fill="white"/>
<rect x="133" y="328" width="15.2083" height="6" rx="1" fill="white"/>
<rect x="190.792" y="344" width="15.2083" height="6" rx="1" fill="white"/>
<rect x="133" y="344" width="15.2083" height="6" rx="1" fill="white"/>
<rect x="190.792" y="360" width="15.2083" height="6" rx="1" fill="white"/>
<rect x="133" y="360" width="15.2083" height="6" rx="1" fill="white"/>
<rect x="190.792" y="376" width="15.2083" height="6" rx="1" fill="white"/>
<rect x="133" y="376" width="15.2083" height="6" rx="1" fill="white"/>
<rect x="191" y="392" width="15.2083" height="6" rx="1" fill="white"/>
<rect x="133" y="392" width="15" height="6" rx="1" fill="white"/>
<path d="M42.4375 342L38.3437 342L38.3437 328.656L31.1406 341.328C30.9635 341.651 30.7135 341.896 30.3906 342.063C30.0781 342.229 29.7396 342.313 29.375 342.313C29.0208 342.313 28.6875 342.229 28.375 342.063C28.0729 341.896 27.8333 341.651 27.6562 341.328L20.4219 328.656L20.4219 342L16.3594 342L16.3594 321.328C16.3594 320.859 16.4948 320.443 16.7656 320.078C17.0469 319.714 17.4115 319.469 17.8594 319.344C18.0781 319.292 18.2969 319.276 18.5156 319.297C18.7344 319.307 18.9427 319.354 19.1406 319.438C19.349 319.51 19.5365 319.62 19.7031 319.766C19.8698 319.901 20.0104 320.068 20.125 320.266L29.375 336.344L38.625 320.266C38.8646 319.87 39.1927 319.589 39.6094 319.422C40.0365 319.255 40.4792 319.229 40.9375 319.344C41.375 319.469 41.7344 319.714 42.0156 320.078C42.2969 320.443 42.4375 320.859 42.4375 321.328L42.4375 342ZM67.0056 330.703C67.0056 331.266 66.9067 331.875 66.7087 332.531C66.5108 333.177 66.1879 333.781 65.74 334.344C65.3025 334.896 64.7244 335.359 64.0056 335.734C63.2973 336.109 62.4327 336.297 61.4119 336.297L54.0837 336.297L54.0837 332.438L61.4119 332.438C61.964 332.438 62.391 332.271 62.6931 331.938C62.9952 331.594 63.1462 331.172 63.1462 330.672C63.1462 330.141 62.9744 329.724 62.6306 329.422C62.2973 329.12 61.891 328.969 61.4119 328.969L54.0837 328.969C53.5317 328.969 53.1046 329.141 52.8025 329.484C52.5004 329.818 52.3494 330.234 52.3494 330.734L52.3494 336.406C52.3494 336.948 52.516 337.37 52.8494 337.672C53.1931 337.974 53.615 338.125 54.115 338.125L61.4119 338.125L61.4119 342L54.0837 342C53.5212 342 52.9119 341.901 52.2556 341.703C51.6098 341.505 51.0056 341.188 50.4431 340.75C49.891 340.302 49.4275 339.724 49.0525 339.016C48.6775 338.297 48.49 337.427 48.49 336.406L48.49 330.703C48.49 330.141 48.589 329.536 48.7869 328.891C48.9848 328.234 49.3025 327.63 49.74 327.078C50.1879 326.516 50.766 326.047 51.4744 325.672C52.1931 325.297 53.0629 325.109 54.0838 325.109L61.4119 325.109C61.9744 325.109 62.5785 325.208 63.2244 325.406C63.8806 325.604 64.4848 325.927 65.0369 326.375C65.5994 326.813 66.0681 327.391 66.4431 328.109C66.8181 328.818 67.0056 329.682 67.0056 330.703ZM87.3394 329.172L80.2456 329.172L80.2456 342L76.1362 342L76.1362 329.172L70.855 329.172L70.855 325.109L76.1362 325.109L76.1362 319.594L80.2456 319.594L80.2456 325.109L87.3394 325.109L87.3394 329.172ZM108.72 336.406C108.72 336.969 108.621 337.578 108.423 338.234C108.225 338.88 107.902 339.484 107.454 340.047C107.017 340.599 106.439 341.063 105.72 341.438C105.012 341.813 104.147 342 103.126 342L95.7981 342C95.2356 342 94.6262 341.901 93.97 341.703C93.3242 341.505 92.72 341.188 92.1575 340.75C91.6054 340.302 91.1419 339.724 90.7669 339.016C90.3919 338.297 90.2044 337.427 90.2044 336.406C90.2044 335.844 90.3033 335.234 90.5012 334.578C90.6992 333.922 91.0169 333.318 91.4544 332.766C91.9023 332.203 92.4804 331.734 93.1887 331.359C93.9075 330.984 94.7773 330.797 95.7981 330.797L103.126 330.797L103.126 334.672L95.7981 334.672C95.246 334.672 94.819 334.844 94.5169 335.188C94.2148 335.521 94.0637 335.938 94.0637 336.438C94.0637 336.969 94.2356 337.385 94.5794 337.688C94.9335 337.979 95.3502 338.125 95.8294 338.125L103.126 338.125C103.678 338.125 104.105 337.958 104.407 337.625C104.71 337.292 104.861 336.875 104.861 336.375L104.861 330.703C104.861 330.172 104.694 329.75 104.361 329.438C104.038 329.125 103.626 328.969 103.126 328.969L94.2044 328.969L94.2044 325.109L103.126 325.109C103.689 325.109 104.293 325.208 104.939 325.406C105.595 325.604 106.199 325.927 106.751 326.375C107.314 326.813 107.782 327.391 108.157 328.109C108.532 328.818 108.72 329.682 108.72 330.703L108.72 336.406ZM38.75 355.125C38.75 356.052 38.6354 356.88 38.4062 357.609C38.1771 358.339 37.8646 358.984 37.4687 359.547C37.0833 360.099 36.6354 360.573 36.125 360.969C35.6146 361.365 35.0781 361.693 34.5156 361.953C33.9635 362.203 33.401 362.385 32.8281 362.5C32.2656 362.615 31.7344 362.672 31.2344 362.672L39.7187 370L33.4375 370L24.9687 362.672L22.0469 362.672L22.0469 358.609L31.2344 358.609C31.7448 358.568 32.2083 358.464 32.625 358.297C33.0521 358.12 33.4167 357.885 33.7187 357.594C34.0312 357.302 34.2708 356.953 34.4375 356.547C34.6042 356.13 34.6875 355.656 34.6875 355.125L34.6875 352.563C34.6875 352.333 34.6562 352.161 34.5937 352.047C34.5417 351.922 34.4687 351.833 34.375 351.781C34.2917 351.719 34.1979 351.682 34.0937 351.672C34 351.661 33.9115 351.656 33.8281 351.656L20.4219 351.656L20.4219 370L16.3594 370L16.3594 349.641C16.3594 349.359 16.4115 349.094 16.5156 348.844C16.6198 348.594 16.7604 348.375 16.9375 348.188C17.125 348 17.3437 347.854 17.5937 347.75C17.8437 347.646 18.1146 347.594 18.4062 347.594L33.8281 347.594C34.7344 347.594 35.5 347.76 36.125 348.094C36.75 348.417 37.2552 348.828 37.6406 349.328C38.0365 349.818 38.3177 350.349 38.4844 350.922C38.6615 351.495 38.75 352.031 38.75 352.531L38.75 355.125ZM62.8025 364.297C62.8025 364.995 62.7139 365.625 62.5369 366.188C62.3598 366.74 62.1254 367.229 61.8337 367.656C61.5421 368.073 61.2035 368.432 60.8181 368.734C60.4327 369.026 60.0264 369.266 59.5994 369.453C59.1827 369.641 58.7556 369.781 58.3181 369.875C57.891 369.958 57.4848 370 57.0994 370L49.7712 370C49.2087 370 48.5942 369.901 47.9275 369.703C47.2608 369.505 46.641 369.182 46.0681 368.734C45.5056 368.276 45.0317 367.688 44.6462 366.969C44.2712 366.24 44.0837 365.349 44.0837 364.297L44.0837 358.797C44.0837 357.755 44.2712 356.875 44.6462 356.156C45.0317 355.427 45.5056 354.839 46.0681 354.391C46.641 353.932 47.2608 353.604 47.9275 353.406C48.5942 353.208 49.2087 353.109 49.7712 353.109L57.0994 353.109C58.141 353.109 59.0265 353.297 59.7556 353.672C60.4848 354.047 61.0733 354.521 61.5212 355.094C61.9692 355.656 62.2921 356.271 62.49 356.938C62.6983 357.604 62.8025 358.224 62.8025 358.797L62.8025 364.297ZM58.74 358.828C58.74 358.266 58.5994 357.849 58.3181 357.578C58.0369 357.307 57.6306 357.172 57.0994 357.172L49.8025 357.172C49.2608 357.172 48.8494 357.313 48.5681 357.594C48.2869 357.865 48.1462 358.266 48.1462 358.797L48.1462 364.297C48.1462 364.828 48.2869 365.234 48.5681 365.516C48.8494 365.797 49.2608 365.938 49.8025 365.938L57.0994 365.938C57.6514 365.938 58.0629 365.797 58.3337 365.516C58.6046 365.234 58.74 364.828 58.74 364.297L58.74 358.828ZM87.1362 364.297C87.1362 364.682 87.0894 365.089 86.9956 365.516C86.9123 365.943 86.7769 366.37 86.5894 366.797C86.4019 367.214 86.1571 367.615 85.855 368C85.5633 368.385 85.2039 368.729 84.7769 369.031C84.3602 369.323 83.8758 369.557 83.3237 369.734C82.7717 369.911 82.1467 370 81.4487 370L74.1206 370C73.7352 370 73.3289 369.958 72.9019 369.875C72.4748 369.781 72.0477 369.641 71.6206 369.453C71.2039 369.266 70.8029 369.026 70.4175 368.734C70.0321 368.432 69.6883 368.073 69.3862 367.656C69.0946 367.229 68.8602 366.74 68.6831 366.188C68.506 365.625 68.4175 364.995 68.4175 364.297L68.4175 345.969L72.48 345.969L72.48 364.297C72.48 364.797 72.6362 365.198 72.9487 365.5C73.2612 365.792 73.6519 365.938 74.1206 365.938L81.4487 365.938C81.9592 365.938 82.355 365.786 82.6362 365.484C82.9279 365.182 83.0737 364.786 83.0737 364.297L83.0737 358.797C83.0737 358.286 82.9227 357.891 82.6206 357.609C82.3185 357.318 81.9279 357.172 81.4487 357.172L74.1206 357.172L74.1206 353.109L81.4487 353.109C81.8342 353.109 82.2404 353.156 82.6675 353.25C83.0946 353.333 83.5165 353.469 83.9331 353.656C84.3602 353.844 84.7665 354.089 85.1519 354.391C85.5373 354.682 85.8758 355.042 86.1675 355.469C86.4592 355.885 86.6935 356.37 86.8706 356.922C87.0477 357.474 87.1362 358.099 87.1362 358.797L87.1362 364.297ZM111.22 364.297C111.22 364.995 111.131 365.625 110.954 366.188C110.777 366.74 110.543 367.229 110.251 367.656C109.96 368.073 109.621 368.432 109.236 368.734C108.85 369.026 108.444 369.266 108.017 369.453C107.6 369.641 107.173 369.781 106.736 369.875C106.309 369.958 105.902 370 105.517 370L98.1887 370C97.6262 370 97.0117 369.901 96.345 369.703C95.6783 369.505 95.0585 369.182 94.4856 368.734C93.9231 368.276 93.4492 367.688 93.0637 366.969C92.6887 366.24 92.5012 365.349 92.5012 364.297L92.5012 358.797C92.5012 357.755 92.6887 356.875 93.0637 356.156C93.4492 355.427 93.9231 354.839 94.4856 354.391C95.0585 353.932 95.6783 353.604 96.345 353.406C97.0117 353.208 97.6262 353.109 98.1887 353.109L105.517 353.109C106.559 353.109 107.444 353.297 108.173 353.672C108.902 354.047 109.491 354.521 109.939 355.094C110.387 355.656 110.71 356.271 110.907 356.938C111.116 357.604 111.22 358.224 111.22 358.797L111.22 364.297ZM107.157 358.828C107.157 358.266 107.017 357.849 106.736 357.578C106.454 357.307 106.048 357.172 105.517 357.172L98.22 357.172C97.6783 357.172 97.2669 357.313 96.9856 357.594C96.7044 357.865 96.5637 358.266 96.5637 358.797L96.5637 364.297C96.5637 364.828 96.7044 365.234 96.9856 365.516C97.2669 365.797 97.6783 365.938 98.22 365.938L105.517 365.938C106.069 365.938 106.48 365.797 106.751 365.516C107.022 365.234 107.157 364.828 107.157 364.297L107.157 358.828ZM36.9375 398L18.4062 398C18.1146 398 17.8437 397.948 17.5937 397.844C17.3437 397.74 17.125 397.599 16.9375 397.422C16.7604 397.234 16.6198 397.016 16.5156 396.766C16.4114 396.516 16.3594 396.245 16.3594 395.953L16.3594 375.594L20.4219 375.594L20.4219 393.938L36.9375 393.938L36.9375 398ZM59.8806 386.703C59.8806 387.266 59.7817 387.875 59.5837 388.531C59.3858 389.177 59.0629 389.781 58.615 390.344C58.1775 390.896 57.5994 391.359 56.8806 391.734C56.1723 392.109 55.3077 392.297 54.2869 392.297L46.9587 392.297L46.9587 388.438L54.2869 388.438C54.8389 388.438 55.266 388.271 55.5681 387.938C55.8702 387.594 56.0212 387.172 56.0212 386.672C56.0212 386.141 55.8494 385.724 55.5056 385.422C55.1723 385.12 54.766 384.969 54.2869 384.969L46.9587 384.969C46.4067 384.969 45.9796 385.141 45.6775 385.484C45.3754 385.818 45.2244 386.234 45.2244 386.734L45.2244 392.406C45.2244 392.948 45.391 393.37 45.7244 393.672C46.0681 393.974 46.49 394.125 46.99 394.125L54.2869 394.125L54.2869 398L46.9587 398C46.3962 398 45.7869 397.901 45.1306 397.703C44.4848 397.505 43.8806 397.188 43.3181 396.75C42.766 396.302 42.3025 395.724 41.9275 395.016C41.5525 394.297 41.365 393.427 41.365 392.406L41.365 386.703C41.365 386.141 41.4639 385.536 41.6619 384.891C41.8598 384.234 42.1775 383.63 42.615 383.078C43.0629 382.516 43.641 382.047 44.3494 381.672C45.0681 381.297 45.9379 381.109 46.9587 381.109L54.2869 381.109C54.8494 381.109 55.4535 381.208 56.0994 381.406C56.7556 381.604 57.3598 381.927 57.9119 382.375C58.4744 382.813 58.9431 383.391 59.3181 384.109C59.6931 384.818 59.8806 385.682 59.8806 386.703ZM82.1675 392.406C82.1675 392.969 82.0685 393.578 81.8706 394.234C81.6727 394.88 81.3498 395.484 80.9019 396.047C80.4644 396.599 79.8862 397.063 79.1675 397.438C78.4592 397.813 77.5946 398 76.5737 398L69.2456 398C68.6831 398 68.0737 397.901 67.4175 397.703C66.7717 397.505 66.1675 397.188 65.605 396.75C65.0529 396.302 64.5894 395.724 64.2144 395.016C63.8394 394.297 63.6519 393.427 63.6519 392.406C63.6519 391.844 63.7508 391.234 63.9487 390.578C64.1467 389.922 64.4644 389.318 64.9019 388.766C65.3498 388.203 65.9279 387.734 66.6362 387.359C67.355 386.984 68.2248 386.797 69.2456 386.797L76.5737 386.797L76.5737 390.672L69.2456 390.672C68.6935 390.672 68.2664 390.844 67.9644 391.188C67.6623 391.521 67.5112 391.938 67.5112 392.438C67.5112 392.969 67.6831 393.385 68.0269 393.688C68.381 393.979 68.7977 394.125 69.2769 394.125L76.5737 394.125C77.1258 394.125 77.5529 393.958 77.855 393.625C78.1571 393.292 78.3081 392.875 78.3081 392.375L78.3081 386.703C78.3081 386.172 78.1414 385.75 77.8081 385.438C77.4852 385.125 77.0737 384.969 76.5737 384.969L67.6519 384.969L67.6519 381.109L76.5737 381.109C77.1362 381.109 77.7404 381.208 78.3862 381.406C79.0425 381.604 79.6467 381.927 80.1987 382.375C80.7612 382.813 81.23 383.391 81.605 384.109C81.98 384.818 82.1675 385.682 82.1675 386.703L82.1675 392.406ZM102.657 385.172L93.5169 385.172C92.9648 385.172 92.5481 385.313 92.2669 385.594C91.9856 385.865 91.845 386.266 91.845 386.797L91.845 398L87.7825 398L87.7825 386.797C87.7825 386.099 87.871 385.474 88.0481 384.922C88.2252 384.37 88.4596 383.885 88.7512 383.469C89.0533 383.042 89.3971 382.682 89.7825 382.391C90.1679 382.089 90.5689 381.844 90.9856 381.656C91.4127 381.469 91.8398 381.333 92.2669 381.25C92.7044 381.156 93.1106 381.109 93.4856 381.109L102.657 381.109L102.657 385.172ZM126.304 398L122.241 398L122.241 388.625C122.241 388.094 122.147 387.62 121.96 387.203C121.783 386.776 121.538 386.411 121.226 386.109C120.913 385.807 120.543 385.578 120.116 385.422C119.7 385.255 119.246 385.172 118.757 385.172L111.647 385.172L111.647 398L107.585 398L107.585 383.125C107.585 382.844 107.637 382.583 107.741 382.344C107.845 382.094 107.991 381.88 108.179 381.703C108.366 381.516 108.585 381.37 108.835 381.266C109.085 381.161 109.351 381.109 109.632 381.109L118.788 381.109C119.299 381.109 119.835 381.167 120.397 381.281C120.97 381.396 121.533 381.583 122.085 381.844C122.647 382.094 123.179 382.417 123.679 382.813C124.189 383.198 124.637 383.672 125.022 384.234C125.418 384.786 125.731 385.427 125.96 386.156C126.189 386.885 126.304 387.708 126.304 388.625L126.304 398Z" fill="white"/>
</svg>
