<svg width="47" height="68" viewBox="0 0 47 68" fill="none" xmlns="http://www.w3.org/2000/svg">
<path d="M12.7949 14.79C12.7949 14.79 14.7264 14.6277 15.9336 15.1957C17.1408 15.7638 18.2675 16.6563 18.2675 16.6563" stroke="black" stroke-linecap="round"/>
<path d="M12.7949 17.0571C12.7949 17.0571 16.8189 16.8137 16.9799 18.1931C17.1408 19.5726 13.8412 21.7635 13.8412 21.7635M14.8874 17.1217C14.8874 17.1217 14.324 17.9331 14.6459 18.988C14.9679 20.0429 15.6117 20.2864 15.6117 20.2864" stroke="black" stroke-linecap="round"/>
<path d="M25.8325 22.5765C25.8325 22.5765 38.9507 22.5236 38.9507 22.5765C38.9507 22.6211 38.9507 26.0682 38.9507 27.4284C38.9507 27.7635 38.857 28.0848 38.5449 28.2C37.8381 28.461 36.3774 28.7369 35.4901 29.3927C35.0596 29.7107 34.6423 30.1644 34.2664 30.6487C33.1343 32.1074 31.5105 33.2066 29.6733 33.2066H26.1544" stroke="black"/>
<path d="M18.75 52.907H10.6319C9.34614 52.907 8.28547 51.8951 8.28774 50.5987C8.28896 49.9108 8.64637 49.2769 9.21006 48.8893L11.8645 47.0645L15.9022 44.3926C16.1526 44.2267 16.419 44.0875 16.6654 43.9156C17.9011 43.054 20.1182 40.8163 20.1182 40.8163M20.1182 40.8163C20.1182 40.8163 16.5771 37.9762 15.6113 37.5705C14.6455 37.1648 11.5068 37.5705 10.4606 37.5705C9.41438 37.5705 8.93151 36.5156 8.93151 36.0287C8.93151 35.5419 9.49486 34.4058 9.3339 33.7567C9.17295 33.1075 8.44863 33.0263 8.36815 32.3772C8.28767 31.728 8.77055 31.6469 8.77055 31.3223C8.77055 30.9977 8.36815 30.6731 8.36815 30.1862C8.36815 29.6994 9.09247 28.9691 8.77055 28.1576C8.44863 27.3461 7 27.265 7 25.7232C7 24.1815 10.7021 18.4201 10.7021 17.6898C10.7021 16.9595 11.024 14.7686 10.7021 13.6325C10.3801 12.4965 10.3801 9.41297 11.9897 7.46548C13.5993 5.51798 15.1284 4.86882 16.738 4.21965C18.3476 3.57049 22.613 2.75903 22.613 2.75903M20.1182 40.8163C20.1182 40.8163 24.464 36.759 26.0736 33.2698C27.6832 29.7805 26.476 23.6946 26.0736 22.5586C25.6712 21.4225 24.0616 20.6111 25.5908 16.3103C26.4303 13.949 28.0705 12.1504 29.3791 11.0083C30.5211 10.0115 32.1432 9.9053 33.3702 10.7938C34.3035 11.4696 35.3809 12.4355 36.214 13.7137C38.0651 16.5538 37.7432 22.3963 37.7432 22.3963M37.7432 28.1576V28.4822C37.7432 29.5371 39.0308 29.9428 39.7551 30.9166C40.4795 31.8903 40.8014 32.4583 40.7209 32.9452C40.6404 33.4321 40.5599 33.9189 39.7551 34.0812C38.9503 34.2435 38.3065 34.1624 38.1455 34.487C37.9846 34.8115 38.3065 35.2984 38.7894 36.2722C39.2723 37.2459 38.4675 37.3271 37.9846 37.6516C37.5017 37.9762 38.7894 38.4631 38.7894 38.8688C38.7894 39.2746 37.9846 39.8426 37.9846 40.5729C37.9846 41.3032 38.387 41.7901 38.387 42.5204C38.387 43.2507 38.387 44.8736 36.4555 44.8736C34.524 44.8736 34.524 44.4679 32.5925 44.4679C31.1559 44.4679 29.8175 45.3911 29.0359 46.0606C28.6495 46.3917 28.7338 46.9822 29.1705 47.2422L33.786 49.9916L37.8236 52.6636L41.3519 55.0892C41.3601 55.0947 41.3647 55.0984 41.366 55.1082C41.3718 55.1534 41.3647 55.2089 41.3647 55.2544V65.0788C41.3647 65.5269 41.0043 65.8903 40.5599 65.8903H28.4075" stroke="black"/>
<mask id="mask0_76_325" style="mask-type:luminance" maskUnits="userSpaceOnUse" x="20" y="52" width="6" height="15">
<path d="M25.6717 52.4199H20.682C20.5931 52.4199 20.521 52.4926 20.521 52.5822V66.2147C20.521 66.3043 20.5931 66.377 20.682 66.377H25.6717C25.7606 66.377 25.8326 66.3043 25.8326 66.2147V52.5822C25.8326 52.4926 25.7606 52.4199 25.6717 52.4199Z" fill="white"/>
</mask>
<g mask="url(#mask0_76_325)">
<path d="M25.6717 52.4199H20.682C20.5931 52.4199 20.521 52.4926 20.521 52.5822V66.2147C20.521 66.3043 20.5931 66.377 20.682 66.377H25.6717C25.7606 66.377 25.8326 66.3043 25.8326 66.2147V52.5822C25.8326 52.4926 25.7606 52.4199 25.6717 52.4199Z" fill="black" stroke="black" stroke-width="12"/>
</g>
<path d="M28.8905 52.4199H26.7645C26.6756 52.4199 26.6035 52.4926 26.6035 52.5822V53.2314C26.6035 53.321 26.6756 53.3937 26.7645 53.3937H28.8905C28.9794 53.3937 29.0514 53.321 29.0514 53.2314V52.5822C29.0514 52.4926 28.9794 52.4199 28.8905 52.4199Z" fill="black"/>
<path d="M19.5887 52.4199H17.4627C17.3738 52.4199 17.3018 52.4926 17.3018 52.5822V53.2314C17.3018 53.321 17.3738 53.3937 17.4627 53.3937H19.5887C19.6776 53.3937 19.7497 53.321 19.7497 53.2314V52.5822C19.7497 52.4926 19.6776 52.4199 19.5887 52.4199Z" fill="black"/>
<path d="M28.8905 55.0166H26.7645C26.6756 55.0166 26.6035 55.0893 26.6035 55.1789V55.8281C26.6035 55.9177 26.6756 55.9903 26.7645 55.9903H28.8905C28.9794 55.9903 29.0514 55.9177 29.0514 55.8281V55.1789C29.0514 55.0893 28.9794 55.0166 28.8905 55.0166Z" fill="black"/>
<path d="M19.5887 55.0166H17.4627C17.3738 55.0166 17.3018 55.0893 17.3018 55.1789V55.8281C17.3018 55.9177 17.3738 55.9903 17.4627 55.9903H19.5887C19.6776 55.9903 19.7497 55.9177 19.7497 55.8281V55.1789C19.7497 55.0893 19.6776 55.0166 19.5887 55.0166Z" fill="black"/>
<path d="M28.8905 57.6133H26.7645C26.6756 57.6133 26.6035 57.6859 26.6035 57.7756V58.4247C26.6035 58.5144 26.6756 58.587 26.7645 58.587H28.8905C28.9794 58.587 29.0514 58.5144 29.0514 58.4247V57.7756C29.0514 57.6859 28.9794 57.6133 28.8905 57.6133Z" fill="black"/>
<path d="M19.5887 57.6133H17.4627C17.3738 57.6133 17.3018 57.6859 17.3018 57.7756V58.4247C17.3018 58.5144 17.3738 58.587 17.4627 58.587H19.5887C19.6776 58.587 19.7497 58.5144 19.7497 58.4247V57.7756C19.7497 57.6859 19.6776 57.6133 19.5887 57.6133Z" fill="black"/>
<path d="M28.8905 60.21H26.7645C26.6756 60.21 26.6035 60.2826 26.6035 60.3723V61.0214C26.6035 61.111 26.6756 61.1837 26.7645 61.1837H28.8905C28.9794 61.1837 29.0514 61.111 29.0514 61.0214V60.3723C29.0514 60.2826 28.9794 60.21 28.8905 60.21Z" fill="black"/>
<path d="M19.5887 60.21H17.4627C17.3738 60.21 17.3018 60.2826 17.3018 60.3723V61.0214C17.3018 61.111 17.3738 61.1837 17.4627 61.1837H19.5887C19.6776 61.1837 19.7497 61.111 19.7497 61.0214V60.3723C19.7497 60.2826 19.6776 60.21 19.5887 60.21Z" fill="black"/>
<path d="M28.8905 62.8066H26.7645C26.6756 62.8066 26.6035 62.8793 26.6035 62.9689V63.6181C26.6035 63.7077 26.6756 63.7804 26.7645 63.7804H28.8905C28.9794 63.7804 29.0514 63.7077 29.0514 63.6181V62.9689C29.0514 62.8793 28.9794 62.8066 28.8905 62.8066Z" fill="black"/>
<path d="M19.5887 62.8066H17.4627C17.3738 62.8066 17.3018 62.8793 17.3018 62.9689V63.6181C17.3018 63.7077 17.3738 63.7804 17.4627 63.7804H19.5887C19.6776 63.7804 19.7497 63.7077 19.7497 63.6181V62.9689C19.7497 62.8793 19.6776 62.8066 19.5887 62.8066Z" fill="black"/>
<path d="M28.9242 65.4033H26.7982C26.7093 65.4033 26.6372 65.476 26.6372 65.5656V66.2148C26.6372 66.3044 26.7093 66.3771 26.7982 66.3771H28.9242C29.0131 66.3771 29.0851 66.3044 29.0851 66.2148V65.5656C29.0851 65.476 29.0131 65.4033 28.9242 65.4033Z" fill="black"/>
<path d="M19.5552 65.4033H17.4627C17.3738 65.4033 17.3018 65.476 17.3018 65.5656V66.2148C17.3018 66.3044 17.3738 66.3771 17.4627 66.3771H19.5552C19.6441 66.3771 19.7161 66.3044 19.7161 66.2148V65.5656C19.7161 65.476 19.6441 65.4033 19.5552 65.4033Z" fill="black"/>
</svg>
